<svg xmlns="http://www.w3.org/2000/svg" viewBox="0 0 64 64" width="64" height="64"><circle cx="32.0" cy="32.0" r="32.0" fill="#EC2435"/><g transform="translate(10.88 20.78) scale(0.8800)"><path d="M43.3721 4.68234e-09C44.8829 3.15371e-09 46.1703 0.683015 46.998 1.92383C48.588 4.30594 48.2707 8.65649 46.1504 13.5605C44.8584 16.5416 42.9441 19.4999 40.8975 21.6768C39.2556 23.4206 36.7462 25.4999 34.1172 25.5C32.6063 25.5 31.3189 24.817 30.4912 23.5762C28.9005 21.1926 29.2178 16.842 31.3389 11.9395C33.8445 6.15151 38.913 0.00016864 43.3721 4.68234e-09ZM17.5273 5.90234C16.6387 8.45337 14.8711 15.4178 17.6514 24.9717L17.7236 25.2197L13.2861 25.2197L13.248 25.0752C12.8071 23.4206 12.546 22.1944 12.3398 20.792C11.2278 21.3045 10.0739 21.8144 8.95508 22.3076C7.78425 22.8247 6.57383 23.3581 5.41504 23.8945L5.03027 25.2197L2.55162e-08 25.2197L0.110352 24.9521C0.342085 24.3935 0.552042 23.9006 0.75293 23.4453C4.06894 15.8697 7.78559 10.4375 10.3184 7.21387L10.3623 7.15723L17.6416 5.5752L17.5273 5.90234ZM35.1592 2.21191C34.2539 3.22748 31.898 6.03392 29.5752 10.1494C27.7227 13.4318 25.2842 18.6828 24.1924 25.0576L24.165 25.2188L19.8418 25.2188L19.877 24.9951C20.2795 22.4264 20.9119 19.8356 21.7568 17.2959C20.7147 15.5444 18.9933 11.7508 18.7871 5.57422L18.7822 5.41309L23.042 4.4873L23.0449 4.72559C23.0765 7.26398 23.3971 9.59962 23.999 11.6768C24.5882 10.4158 25.2309 9.1726 25.9111 7.97559C26.8299 6.35449 27.8389 4.76773 28.9111 3.2627L28.9541 3.20117L35.5566 1.7666L35.1592 2.21191ZM42.9639 4.71484C42.4288 4.77526 41.2195 5.30947 39.6025 7.01758C37.9728 8.73977 36.4874 11.0454 35.4189 13.5107C34.659 15.268 34.1829 16.9477 34.043 18.3672C33.8798 20.0094 34.227 20.623 34.2979 20.7295C34.326 20.771 34.3367 20.7824 34.3408 20.7852C34.3416 20.7852 34.3593 20.791 34.4268 20.791C34.9001 20.791 36.1619 20.3053 37.8857 18.4834C39.5171 16.7611 41.0023 14.454 42.0693 11.9893C42.4462 11.1212 42.7557 10.261 42.9912 9.43164C43.2244 8.60895 43.3778 7.83623 43.4463 7.13477C43.6096 5.49433 43.2619 4.87787 43.1904 4.77148C43.1619 4.7284 43.1512 4.71782 43.1475 4.71484C43.1475 4.71484 43.1285 4.709 43.0625 4.70898L42.9639 4.71484ZM11.9932 11.8633C10.3417 14.1657 8.65352 16.8566 7.25781 19.4111C7.94932 19.0734 8.6499 18.7444 9.34668 18.4297C10.1857 18.051 11.0449 17.6829 11.9004 17.334C11.8342 16.0849 11.8679 14.464 11.8867 13.8086C11.9048 13.1617 11.9398 12.5102 11.9932 11.8633Z" fill="#ffffff"/></g></svg>
